<svg width="81" height="80" viewBox="0 0 81 80" fill="none" xmlns="http://www.w3.org/2000/svg">
<path d="M44.5492 64.2232C44.621 56.8803 42.7594 50.9091 40.3914 50.8859C38.0233 50.8629 36.0454 56.7967 35.9737 64.1394C35.9019 71.4823 37.7634 77.4536 40.1314 77.4767C42.4996 77.4999 44.4775 71.5661 44.5492 64.2232Z" fill="black"/>
<path d="M30.8151 62.5555C34.8457 56.4173 36.5083 50.3875 34.5287 49.0877C32.5491 47.7878 27.6769 51.7101 23.6465 57.8483C19.6159 63.9866 17.9534 70.0162 19.9329 71.3162C21.9126 72.616 26.7846 68.6938 30.8151 62.5555Z" fill="black"/>
<path d="M20.1467 53.7488C26.8561 50.7645 31.5148 46.591 30.5523 44.4272C29.5899 42.2634 23.3707 42.9286 16.6612 45.9131C9.95186 48.8974 5.29309 53.0709 6.25557 55.2347C7.21804 57.3986 13.4373 56.7333 20.1467 53.7488Z" fill="black"/>
<path d="M29.7472 38.3592C30.1075 36.0186 24.5159 33.2155 17.2583 32.0984C10.0006 30.9813 3.82497 31.9733 3.46472 34.3139C3.10446 36.6546 8.69595 39.4574 15.9537 40.5746C23.2113 41.6917 29.387 40.6997 29.7472 38.3592Z" fill="black"/>
<path d="M32.3529 32.7832C33.9212 31.0088 30.7321 25.6282 25.2299 20.7653C19.7276 15.9024 13.9958 13.3988 12.4275 15.1733C10.8592 16.9478 14.0484 22.3285 19.5507 27.1914C25.0529 32.0542 30.7847 34.5578 32.3529 32.7832Z" fill="black"/>
<path d="M37.5422 29.5245C39.821 28.8797 40.0474 22.629 38.048 15.5633C36.0486 8.49751 32.5805 3.29233 30.3018 3.93714C28.023 4.58196 27.7966 10.8326 29.796 17.8984C31.7954 24.964 35.2635 30.1693 37.5422 29.5245Z" fill="black"/>
<path d="M51.6336 18.1182C53.772 11.0933 53.6689 4.8394 51.4033 4.14978C49.1377 3.46015 45.5676 8.59592 43.4292 15.6209C41.291 22.6458 41.394 28.8997 43.6596 29.5893C45.9252 30.2789 49.4953 25.1432 51.6336 18.1182Z" fill="black"/>
<path d="M61.7022 27.6104C67.2985 22.856 70.5923 17.5387 69.0588 15.734C67.5256 13.9292 61.7459 16.3203 56.1497 21.0745C50.5534 25.8289 47.2598 31.1462 48.7931 32.951C50.3264 34.7558 56.106 32.3648 61.7022 27.6104Z" fill="black"/>
<path d="M65.0314 41.043C72.3098 40.0693 77.9554 37.3771 77.6413 35.0298C77.3274 32.6826 71.1725 31.5691 63.8941 32.5427C56.6159 33.5165 50.9701 36.2086 51.2842 38.556C51.5983 40.9032 57.753 42.0168 65.0314 41.043Z" fill="black"/>
<path d="M74.4207 55.9056C75.4256 53.7613 70.8501 49.4968 64.2008 46.3807C57.5517 43.2645 51.3467 42.4768 50.3418 44.6211C49.3368 46.7656 53.9123 51.0301 60.5616 54.1463C67.2107 57.2623 73.4157 58.0501 74.4207 55.9056Z" fill="black"/>
<path d="M60.4343 71.7278C62.4391 70.4673 60.8957 64.4059 56.9871 58.1894C53.0784 51.9729 48.2845 47.9555 46.2797 49.216C44.2749 50.4765 45.8183 56.5379 49.7269 62.7544C53.6355 68.9709 58.4295 72.9885 60.4343 71.7278Z" fill="black"/>
</svg>
