<svg width="129" height="119" viewBox="0 0 129 119" fill="none" xmlns="http://www.w3.org/2000/svg">
<path d="M94.7668 17.6237C96.4573 15.6164 96.2105 12.6013 94.0747 11.0763C84.4841 4.22839 73.0418 0.360939 61.1909 0.0240295C47.7516 -0.358036 34.579 3.82278 23.8199 11.8852C13.0607 19.9475 5.34926 31.4162 1.94222 44.4221C-1.46483 57.428 -0.366618 71.2044 5.05789 83.5062C10.4824 95.8081 19.9134 105.91 31.814 112.166C43.7145 118.422 57.3831 120.463 70.5921 117.957C83.8012 115.451 95.772 108.544 104.554 98.364C112.298 89.3867 117.159 78.3301 118.571 66.6306C118.886 64.0251 116.826 61.8095 114.204 61.7038C111.582 61.5982 109.394 63.6441 109.04 66.2445C107.739 75.7964 103.698 84.806 97.3577 92.1565C89.9786 100.711 79.9198 106.514 68.8205 108.62C57.7212 110.726 46.2358 109.011 36.2361 103.754C26.2363 98.4974 18.3116 90.0089 13.7535 79.6719C9.19545 69.3349 8.27265 57.7589 11.1355 46.8303C13.9984 35.9018 20.4781 26.265 29.5188 19.4903C38.5595 12.7157 49.6281 9.20266 60.9208 9.5237C70.6244 9.79956 80.0018 12.8923 87.9313 18.3743C90.09 19.8667 93.0763 19.631 94.7668 17.6237Z" fill="#0C8CE9"/>
<path d="M119 18.5723L60.8328 77.0405L34.3931 50.464" stroke="#0C8CE9" stroke-width="20" stroke-linecap="round" stroke-linejoin="round"/>
</svg>
