<svg width="56" height="56" viewBox="0 0 56 56" fill="none" xmlns="http://www.w3.org/2000/svg">
<path d="M30.8345 44.9563C30.8848 39.8162 29.5816 35.6364 27.924 35.6202C26.2663 35.604 24.8818 39.7577 24.8316 44.8976C24.7813 50.0376 26.0844 54.2175 27.742 54.2337C29.3998 54.2499 30.7843 50.0963 30.8345 44.9563Z" fill="#FAFAFA"/>
<path d="M21.2206 43.7889C24.042 39.4921 25.2058 35.2713 23.8202 34.3614C22.4344 33.4515 19.0239 36.1971 16.2026 40.4939C13.3812 44.7906 12.2174 49.0113 13.6031 49.9213C14.9889 50.8312 18.3993 48.0857 21.2206 43.7889Z" fill="#FAFAFA"/>
<path d="M13.7527 37.6242C18.4493 35.5352 21.7104 32.6137 21.0366 31.0991C20.363 29.5844 16.0095 30.0501 11.3129 32.1392C6.61635 34.2282 3.35521 37.1496 4.02895 38.6643C4.70268 40.179 9.05616 39.7133 13.7527 37.6242Z" fill="#FAFAFA"/>
<path d="M20.473 26.8515C20.7252 25.213 16.8111 23.2509 11.7308 22.4689C6.65034 21.6869 2.32743 22.3813 2.07525 24.0198C1.82307 25.6582 5.73712 27.6202 10.8175 28.4022C15.8979 29.1842 20.2208 28.4898 20.473 26.8515Z" fill="#FAFAFA"/>
<path d="M22.297 22.9483C23.3948 21.7062 21.1624 17.9398 17.3108 14.5357C13.4593 11.1318 9.44699 9.37922 8.34919 10.6214C7.25139 11.8635 9.48378 15.63 13.3354 19.034C17.187 22.438 21.1992 24.1905 22.297 22.9483Z" fill="#FAFAFA"/>
<path d="M25.9295 20.6672C27.5246 20.2158 27.6831 15.8403 26.2836 10.8943C24.884 5.94831 22.4563 2.30469 20.8612 2.75606C19.2661 3.20743 19.1076 7.58286 20.5072 12.5289C21.9067 17.4748 24.3344 21.1185 25.9295 20.6672Z" fill="#FAFAFA"/>
<path d="M35.7934 12.6828C37.2903 7.76535 37.2182 3.38763 35.6323 2.9049C34.0463 2.42216 31.5473 6.0172 30.0504 10.9347C28.5536 15.8521 28.6258 20.2298 30.2117 20.7126C31.7976 21.1953 34.2967 17.6003 35.7934 12.6828Z" fill="#FAFAFA"/>
<path d="M42.8415 19.3272C46.7589 15.9991 49.0646 12.277 47.9912 11.0137C46.9179 9.75036 42.8721 11.4242 38.9548 14.7521C35.0374 18.0802 32.7318 21.8023 33.8051 23.0657C34.8784 24.329 38.9242 22.6553 42.8415 19.3272Z" fill="#FAFAFA"/>
<path d="M45.1721 28.7302C50.2669 28.0485 54.2189 26.164 53.999 24.5209C53.7793 22.8778 49.4709 22.0984 44.376 22.78C39.2812 23.4616 35.3292 25.3461 35.549 26.9892C35.7689 28.6323 40.0772 29.4118 45.1721 28.7302Z" fill="#FAFAFA"/>
<path d="M51.7445 39.1339C52.4479 37.6329 49.2451 34.6478 44.5906 32.4664C39.9362 30.2851 35.5927 29.7338 34.8892 31.2348C34.1858 32.7359 37.3886 35.721 42.0431 37.9024C46.6975 40.0836 51.041 40.6351 51.7445 39.1339Z" fill="#FAFAFA"/>
<path d="M41.9539 50.2095C43.3573 49.3272 42.2769 45.0842 39.5409 40.7326C36.8048 36.3811 33.4491 33.5689 32.0457 34.4512C30.6424 35.3336 31.7227 39.5766 34.4588 43.9281C37.1948 48.2796 40.5506 51.092 41.9539 50.2095Z" fill="#FAFAFA"/>
</svg>
